<?xml version="1.0" standalone="no"?>
<!DOCTYPE svg PUBLIC "-//W3C//DTD SVG 20010904//EN"
 "http://www.w3.org/TR/2001/REC-SVG-20010904/DTD/svg10.dtd">
<svg version="1.0" xmlns="http://www.w3.org/2000/svg"
 width="328.000000pt" height="328.000000pt" viewBox="0 0 328.000000 328.000000"
 preserveAspectRatio="xMidYMid meet">
<metadata>
Created by potrace 1.11, written by Peter Selinger 2001-2013
</metadata>
<g transform="translate(0.000000,328.000000) scale(0.100000,-0.100000)"
fill="#000000" stroke="none">
<path d="M175 3249 c-16 -5 -36 -16 -42 -26 -7 -9 -13 -13 -13 -9 0 4 -7 1
-15 -8 -8 -8 -15 -19 -15 -24 0 -5 -9 -19 -20 -32 -20 -23 -36 -69 -42 -122
-2 -15 -7 -30 -11 -34 -11 -11 -9 -2686 3 -2720 5 -16 11 -40 13 -54 5 -41 35
-94 79 -141 23 -24 42 -43 42 -41 1 2 8 1 16 -2 8 -2 31 -9 50 -14 22 -6 550
-10 1433 -10 1293 0 1402 2 1443 17 59 23 115 75 150 141 18 34 19 84 19 1455
l0 1420 -28 47 c-36 60 -84 102 -156 136 l-56 27 -1410 2 c-816 1 -1423 -2
-1440 -8z"/>
</g>
</svg>
